<svg enable-background="new 0 0 512 512" viewBox="0 0 512 512" xmlns="http://www.w3.org/2000/svg"><g id="_x32_3_Ad_Campaign"><g><path d="m473.457 28.881h-434.913c-17.927 0-32.538 14.559-32.538 32.486v272.17c0 17.927 14.611 32.538 32.538 32.538h434.913c17.979 0 32.538-14.611 32.538-32.538v-272.17c0-17.927-14.56-32.486-32.538-32.486zm-312.533 39.688h19.999c3.575 0 6.477 2.901 6.477 6.477 0 3.575-2.901 6.477-6.477 6.477h-19.999c-3.575 0-6.477-2.901-6.477-6.477.001-3.576 2.902-6.477 6.477-6.477zm-57.304 0h19.999c3.575 0 6.477 2.901 6.477 6.477 0 3.575-2.901 6.477-6.477 6.477h-19.999c-3.575 0-6.477-2.901-6.477-6.477s2.902-6.477 6.477-6.477zm-57.253 0h19.948c3.575 0 6.477 2.901 6.477 6.477 0 3.575-2.901 6.477-6.477 6.477h-19.948c-3.575 0-6.477-2.901-6.477-6.477.001-3.576 2.902-6.477 6.477-6.477zm446.675 264.968c0 10.829-8.756 19.585-19.585 19.585h-434.913c-10.777 0-19.585-8.756-19.585-19.585v-218.803h474.083z"/><path d="m383.614 470.166h-22.642c-2.953-22.02-20.777-39.429-43.056-41.605l-11.813-44.714c-.933-3.472-4.456-5.544-7.927-4.611-3.471.881-5.492 4.456-4.611 7.875l10.881 41.243h-96.889l10.88-41.243c.933-3.419-1.14-6.995-4.611-7.875-3.472-.933-6.995 1.14-7.927 4.611l-11.762 44.714c-22.279 2.176-40.155 19.585-43.108 41.605h-22.642c-3.575 0-6.477 2.901-6.477 6.477 0 3.575 2.902 6.477 6.477 6.477h255.228c3.575 0 6.477-2.901 6.477-6.477-.002-3.575-2.903-6.477-6.478-6.477zm-219.529 0c3.057-16.424 17.461-28.859 34.766-28.859h114.298c17.305 0 31.709 12.435 34.766 28.859z"/><path d="m101.91 176.96c-23.989 0-43.471 19.533-43.471 43.471v64.092c0 3.575 2.902 6.477 6.477 6.477s6.477-2.901 6.477-6.477v-38.704h61.035v38.704c0 3.575 2.901 6.477 6.477 6.477 3.575 0 6.477-2.901 6.477-6.477v-64.092c-.001-23.938-19.483-43.471-43.472-43.471zm30.518 55.906h-61.035v-12.435c0-16.839 13.679-30.518 30.518-30.518s30.518 13.679 30.518 30.518v12.435z"/><path d="m191.027 176.96h-20.984c-3.575 0-6.477 2.901-6.477 6.477v101.034c0 3.575 2.901 6.477 6.477 6.477h20.984c31.45 0 56.994-25.543 56.994-56.994 0-31.399-25.543-56.994-56.994-56.994zm0 101.034h-14.507v-88.081h14.507c24.3 0 44.04 19.74 44.04 44.04s-19.74 44.041-44.04 44.041z"/><path d="m447.114 163.286h-172.772c-3.577 0-6.477 2.899-6.477 6.477 0 3.577 2.899 6.477 6.477 6.477h172.772c3.577 0 6.477-2.899 6.477-6.477 0-3.577-2.899-6.477-6.477-6.477z"/><path d="m274.342 219.045h46.343c3.577 0 6.477-2.899 6.477-6.477 0-3.577-2.899-6.477-6.477-6.477h-46.343c-3.577 0-6.477 2.899-6.477 6.477.001 3.578 2.9 6.477 6.477 6.477z"/><path d="m447.114 206.092h-99.549c-3.577 0-6.477 2.899-6.477 6.477 0 3.577 2.899 6.477 6.477 6.477h99.549c3.577 0 6.477-2.899 6.477-6.477s-2.899-6.477-6.477-6.477z"/><path d="m320.685 291.704h-46.343c-3.577 0-6.477 2.899-6.477 6.477s2.899 6.477 6.477 6.477h46.343c3.577 0 6.477-2.899 6.477-6.477s-2.9-6.477-6.477-6.477z"/><path d="m447.114 291.704h-99.549c-3.577 0-6.477 2.899-6.477 6.477s2.899 6.477 6.477 6.477h99.549c3.577 0 6.477-2.899 6.477-6.477s-2.899-6.477-6.477-6.477z"/><path d="m447.114 248.898h-46.345c-3.577 0-6.477 2.899-6.477 6.477s2.899 6.477 6.477 6.477h46.345c3.577 0 6.477-2.899 6.477-6.477s-2.899-6.477-6.477-6.477z"/><path d="m274.342 261.851h99.549c3.577 0 6.477-2.899 6.477-6.477s-2.899-6.477-6.477-6.477h-99.549c-3.577 0-6.477 2.899-6.477 6.477s2.9 6.477 6.477 6.477z"/></g></g><g id="Layer_1"/></svg>