<svg height="512" viewBox="0 0 512 512" width="512" xmlns="http://www.w3.org/2000/svg"><g id="_05_Accept" data-name="05 Accept"><path d="m366 198.71h-220a25 25 0 0 1 0-50h220a25 25 0 0 1 0 50z"/><path d="m366 281h-220a25 25 0 0 1 0-50h220a25 25 0 0 1 0 50z"/><path d="m366 363.29h-220a25 25 0 0 1 0-50h220a25 25 0 0 1 0 50z"/><path d="m256 512a256 256 0 0 1 -181-437 256 256 0 0 1 362 362 254.33 254.33 0 0 1 -181 75zm0-462c-113.59 0-206 92.41-206 206s92.41 206 206 206 206-92.41 206-206-92.41-206-206-206z"/></g></svg>