<svg height="512" viewBox="0 0 152 152" width="512" xmlns="http://www.w3.org/2000/svg" xmlns:xlink="http://www.w3.org/1999/xlink"><linearGradient id="linear-gradient" gradientUnits="userSpaceOnUse" x1="21.14" x2="131.29" y1="21.14" y2="131.29"><stop offset="0" stop-color="#cc382c"/><stop offset="1" stop-color="#f44336"/></linearGradient><linearGradient id="linear-gradient-2" gradientUnits="userSpaceOnUse" x1="69.66" x2="126.46" y1="79.77" y2="136.56"><stop offset="0" stop-color="#b71c1c"/><stop offset="1" stop-color="#b71c1c" stop-opacity="0"/></linearGradient><g id="Layer_2" data-name="Layer 2"><g id="_13.Notification_Bell" data-name="13.Notification Bell"><path id="background" d="m152 76a75.91 75.91 0 0 1 -68.44 75.63c-2.49.24-5 .37-7.56.37a76 76 0 1 1 76-76z" fill="url(#linear-gradient)"/><path id="shadow" d="m148.07 100.2a76.1 76.1 0 0 1 -64.51 51.43l-44.48-44.47 33.49-11 8.3-63.16z" fill="url(#linear-gradient-2)"/><g id="Icon"><g id="Icon-2" fill="#fff" data-name="Icon"><path d="m85.23 111.77a9.23 9.23 0 0 1 -18.46 0z"/><path d="m112.92 102.54v4.62h-73.84v-4.62l9.23-9.23v-23.09c0-14.18 7.54-26 20.77-29.15v-3.15a6.92 6.92 0 0 1 13.84 0v3.15c13.23 3.14 20.77 15 20.77 29.15v23.09z"/></g><g id="Shade" fill="#4d4d4d"><path d="m76 111.77h-9.23a9.24 9.24 0 0 0 9.23 9.23z" opacity=".25"/><path d="m39.08 102.54v4.62h36.92v-76.16a6.91 6.91 0 0 0 -6.92 6.92v3.15c-13.23 3.14-20.77 14.93-20.77 29.15v23.09z" opacity=".25"/></g></g></g></g></svg>