<svg id="Layer_1" enable-background="new 0 0 100 100" height="100" viewBox="0 0 100 100" width="100" xmlns="http://www.w3.org/2000/svg"><path d="m85 10-1.668 23.334h-3.332v-10c0-3.667-3.002-6.667-6.668-6.667h-46.665c-3.667 0-6.666 3-6.666 6.667v10h-3.334l-1.667-23.334h-5v33.334l10 5.716v7.618c0 3.664 2.999 6.666 6.666 6.666h46.666c3.666 0 6.668-3.002 6.668-6.666v-7.618l10-5.716v-33.334zm-11.668 46.668h-46.665v-33.334h46.666v33.334z"/><path d="m10 76.668v13.332h6.666v-8.654c19.157-6.18 47.505-6.18 66.666 0v8.654h6.668v-13.332c-22.088-8.891-57.916-8.891-80 0z"/><path d="m60 43.334c0 4.604-4.477 8.334-10 8.334-5.521 0-10-3.729-10-8.334z"/><path d="m56.666 31.667h10v5h-10z"/><path d="m33.333 31.667h10v5h-10z"/></svg>